<?xml version="1.0" encoding="utf-8"?>
<!-- Generator: Adobe Illustrator 14.0.0, SVG Export Plug-In . SVG Version: 6.00 Build 43363)  -->
<!DOCTYPE svg PUBLIC "-//W3C//DTD SVG 1.1//EN" "http://www.w3.org/Graphics/SVG/1.1/DTD/svg11.dtd">
<svg version="1.1" id="Layer_1" xmlns="http://www.w3.org/2000/svg" xmlns:xlink="http://www.w3.org/1999/xlink" x="0px" y="0px"
	 width="70px" height="70px" viewBox="0 0 70 70" enable-background="new 0 0 70 70" xml:space="preserve">
<g>
	<path fill="#FFFFFF" d="M64.126,27.655c0.491-0.359,1.026-0.657,1.605-0.896c0.578-0.237,1.141-0.354,1.692-0.354
		c1.061,0,1.927,0.251,2.6,0.753c0.673,0.503,1.194,1.142,1.564,1.919c0.369,0.777,0.61,1.629,0.725,2.558
		c0.113,0.928,0.141,1.819,0.084,2.671c-0.19,2.292-0.777,4.012-1.762,5.158c-0.986,1.146-2.416,1.72-4.292,1.72
		c-0.267,0-0.73-0.018-1.393-0.059c-0.663-0.038-1.336-0.074-2.018-0.111c-0.795-0.058-1.667-0.113-2.614-0.172V20.977h3.809V27.655
		L64.126,27.655z M67.224,29.873c-0.246,0-0.516,0.038-0.81,0.114c-0.294,0.076-0.583,0.185-0.867,0.328
		c-0.284,0.143-0.55,0.303-0.795,0.482c-0.247,0.181-0.456,0.365-0.625,0.555l0.056,6.453c0.568,0.112,1.118,0.168,1.648,0.168
		c0.966,0,1.687-0.399,2.16-1.209c0.474-0.803,0.768-1.917,0.881-3.337c0.019-0.342,0.015-0.721-0.015-1.137
		c-0.027-0.417-0.099-0.805-0.212-1.166c-0.114-0.359-0.289-0.657-0.525-0.895C67.882,29.992,67.583,29.873,67.224,29.873z"/>
	<path fill="#FFFFFF" d="M85.413,26.691l0.055,14.181h-3.806l-0.114-1.363c-0.153,0.15-0.375,0.325-0.668,0.523
		c-0.294,0.198-0.611,0.384-0.953,0.556c-0.34,0.17-0.701,0.317-1.08,0.439c-0.379,0.123-0.729,0.186-1.051,0.186
		c-1.478,0-2.586-0.572-3.326-1.72c-0.738-1.146-1.108-2.941-1.108-5.386V26.69h3.808v7.417c0,1.29,0.082,2.236,0.242,2.842
		c0.162,0.605,0.554,0.91,1.18,0.91c0.284,0,0.577-0.062,0.88-0.186c0.303-0.125,0.588-0.275,0.853-0.457
		c0.265-0.179,0.507-0.367,0.726-0.566c0.217-0.198,0.393-0.363,0.524-0.498l0.029-9.463h3.809V26.691z"/>
	<path fill="#FFFFFF" d="M92.801,47.835c-0.549,0-1.089-0.022-1.618-0.071c-0.531-0.049-1.004-0.099-1.42-0.156
		c-0.494-0.075-0.959-0.158-1.395-0.256l0.143-3.209c0.418,0.035,0.813,0.074,1.194,0.112c0.321,0.037,0.667,0.062,1.038,0.071
		c0.369,0.01,0.688,0.016,0.953,0.016c1.021,0,1.791-0.311,2.313-0.925c0.523-0.616,0.782-1.521,0.782-2.715V40.02
		c-0.02,0-0.146,0.062-0.383,0.188c-0.236,0.123-0.518,0.26-0.84,0.411c-0.321,0.151-0.647,0.289-0.979,0.413
		c-0.333,0.121-0.611,0.185-0.839,0.185c-1.687,0-2.989-0.598-3.907-1.791c-0.919-1.192-1.378-2.803-1.378-4.831
		c0-1.232,0.113-2.354,0.341-3.367c0.227-1.014,0.584-1.881,1.066-2.602c0.482-0.72,1.1-1.278,1.848-1.677
		c0.748-0.397,1.644-0.597,2.687-0.597c0.417,0,0.97,0.02,1.661,0.057c0.693,0.039,1.369,0.076,2.033,0.115
		c0.776,0.057,1.602,0.113,2.473,0.171l0.056,14.041C98.667,45.466,96.724,47.835,92.801,47.835z M92.632,29.675
		c-0.398,0-0.753,0.133-1.064,0.398c-0.312,0.265-0.582,0.629-0.81,1.094s-0.397,1.009-0.512,1.635s-0.171,1.307-0.171,2.046
		c0,0.91,0.154,1.61,0.469,2.104c0.312,0.493,0.828,0.739,1.548,0.739c0.208,0,0.47-0.066,0.782-0.199s0.609-0.273,0.896-0.426
		c0.34-0.189,0.672-0.397,0.996-0.627v-6.623c-0.268-0.019-0.531-0.037-0.798-0.057c-0.227-0.019-0.464-0.037-0.71-0.057
		C93.01,29.684,92.801,29.675,92.632,29.675z"/>
	<path fill="#FFFFFF" d="M110.31,30.128c-0.645-0.075-1.277-0.151-1.904-0.227c-0.529-0.058-1.079-0.114-1.647-0.17
		c-0.567-0.057-1.041-0.085-1.419-0.085c-0.568,0-1.016,0.085-1.336,0.256c-0.322,0.17-0.484,0.388-0.484,0.652
		c0,0.437,0.213,0.749,0.642,0.938c0.426,0.19,1.047,0.408,1.86,0.654c0.625,0.19,1.229,0.384,1.806,0.583s1.094,0.465,1.55,0.796
		s0.818,0.753,1.094,1.264c0.274,0.513,0.412,1.167,0.412,1.961c0,0.646-0.09,1.234-0.27,1.764c-0.182,0.528-0.489,0.99-0.926,1.379
		c-0.436,0.39-1.016,0.692-1.731,0.908c-0.724,0.219-1.62,0.326-2.7,0.326c-0.438,0-0.963-0.023-1.576-0.07
		c-0.615-0.049-1.197-0.108-1.75-0.188c-0.644-0.076-1.314-0.172-2.017-0.286l0.142-3.207c0.723,0.097,1.402,0.181,2.047,0.256
		c0.549,0.058,1.116,0.109,1.707,0.155c0.588,0.049,1.067,0.07,1.446,0.07c0.604,0,1.058-0.107,1.353-0.325
		c0.291-0.22,0.439-0.479,0.439-0.78c0-0.38-0.248-0.693-0.738-0.95c-0.492-0.255-1.139-0.506-1.935-0.751
		c-0.454-0.131-0.953-0.291-1.492-0.481c-0.54-0.19-1.042-0.444-1.507-0.766c-0.462-0.322-0.854-0.737-1.164-1.248
		c-0.314-0.51-0.469-1.162-0.469-1.956c0-0.567,0.103-1.105,0.311-1.616c0.209-0.511,0.542-0.959,0.996-1.347
		c0.456-0.387,1.038-0.694,1.749-0.921c0.711-0.226,1.565-0.34,2.57-0.34c0.38,0,0.807,0.023,1.278,0.07
		c0.476,0.048,0.941,0.11,1.408,0.185c0.463,0.076,0.903,0.153,1.319,0.228c0.417,0.076,0.758,0.152,1.024,0.228L110.31,30.128z"/>
	<path fill="#FFFFFF" d="M122.474,39.509c-0.207,0.15-0.481,0.32-0.824,0.511c-0.34,0.188-0.737,0.369-1.192,0.539
		c-0.456,0.172-0.953,0.313-1.492,0.428c-0.54,0.113-1.095,0.172-1.661,0.172c-1.044,0-1.943-0.178-2.701-0.524
		c-0.76-0.353-1.379-0.845-1.858-1.479c-0.484-0.636-0.847-1.398-1.082-2.287c-0.236-0.892-0.354-1.885-0.354-2.984
		c0-1.25,0.176-2.345,0.523-3.284c0.354-0.937,0.818-1.718,1.404-2.344c0.592-0.625,1.271-1.089,2.05-1.393
		c0.774-0.303,1.582-0.455,2.416-0.455c0.832,0,1.571,0.119,2.216,0.355c0.645,0.237,1.188,0.559,1.637,0.966
		c0.443,0.408,0.779,0.895,1.008,1.463s0.342,1.194,0.342,1.876c0,1.024-0.284,1.862-0.854,2.516
		c-0.567,0.655-1.26,1.171-2.073,1.55c-0.815,0.378-1.68,0.653-2.588,0.825c-0.906,0.169-1.705,0.266-2.389,0.282
		c0,0.437,0.163,0.838,0.482,1.209c0.322,0.368,0.806,0.554,1.451,0.554c0.357,0,0.767-0.052,1.221-0.154
		c0.455-0.104,0.904-0.24,1.351-0.412c0.445-0.17,0.868-0.359,1.267-0.567c0.396-0.207,0.723-0.417,0.967-0.626L122.474,39.509z
		 M117.812,29.617c-0.32,0-0.641,0.071-0.953,0.213c-0.312,0.143-0.603,0.355-0.864,0.64c-0.269,0.284-0.494,0.646-0.685,1.08
		c-0.188,0.436-0.319,0.947-0.396,1.535c0.489-0.056,1.009-0.119,1.548-0.184c0.54-0.068,1.037-0.176,1.493-0.328
		c0.455-0.152,0.828-0.351,1.123-0.597c0.293-0.246,0.438-0.578,0.438-0.995c0-0.397-0.139-0.726-0.412-0.98
		C118.831,29.745,118.399,29.617,117.812,29.617z"/>
	<path fill="#FFFFFF" d="M124.293,40.872l-0.058-14.181h3.808l0.026,1.448c0.133-0.169,0.339-0.358,0.611-0.567
		c0.273-0.209,0.578-0.403,0.908-0.583c0.332-0.18,0.684-0.332,1.055-0.455c0.367-0.124,0.725-0.185,1.064-0.185
		c0.812,0,1.516,0.166,2.104,0.498c0.586,0.331,1.062,0.81,1.42,1.435c0.359,0.626,0.627,1.374,0.795,2.246
		c0.174,0.872,0.258,1.847,0.258,2.927l0.057,7.418h-3.808l-0.058-7.418c0-0.473-0.012-0.929-0.026-1.364
		c-0.021-0.435-0.077-0.825-0.173-1.166c-0.094-0.34-0.245-0.61-0.455-0.81c-0.211-0.2-0.512-0.299-0.909-0.299
		c-0.474,0-0.966,0.143-1.479,0.426c-0.512,0.285-0.976,0.673-1.394,1.166l0.058,9.464H124.293L124.293,40.872z"/>
	<path fill="#FFFFFF" d="M147.966,30.128c-0.644-0.075-1.277-0.151-1.902-0.227c-0.528-0.058-1.08-0.114-1.647-0.17
		c-0.569-0.057-1.043-0.085-1.421-0.085c-0.567,0-1.016,0.085-1.336,0.256c-0.321,0.17-0.483,0.388-0.483,0.652
		c0,0.437,0.214,0.749,0.64,0.938c0.428,0.19,1.047,0.408,1.861,0.654c0.625,0.19,1.229,0.384,1.805,0.583
		c0.578,0.199,1.097,0.465,1.552,0.796c0.454,0.331,0.817,0.753,1.095,1.264c0.273,0.513,0.411,1.167,0.411,1.961
		c0,0.646-0.088,1.234-0.271,1.764c-0.182,0.528-0.49,0.99-0.926,1.379c-0.438,0.39-1.014,0.692-1.732,0.908
		c-0.723,0.219-1.617,0.326-2.7,0.326c-0.437,0-0.961-0.023-1.575-0.07c-0.616-0.049-1.198-0.108-1.749-0.188
		c-0.644-0.076-1.315-0.172-2.019-0.286l0.144-3.207c0.724,0.097,1.404,0.181,2.047,0.256c0.55,0.058,1.117,0.109,1.704,0.155
		c0.588,0.049,1.07,0.07,1.449,0.07c0.607,0,1.058-0.107,1.351-0.325c0.296-0.22,0.441-0.479,0.441-0.78
		c0-0.38-0.245-0.693-0.738-0.95c-0.491-0.255-1.137-0.506-1.937-0.751c-0.452-0.131-0.948-0.291-1.489-0.481
		c-0.54-0.19-1.043-0.444-1.506-0.766c-0.466-0.322-0.853-0.737-1.165-1.248c-0.312-0.51-0.471-1.162-0.471-1.956
		c0-0.567,0.104-1.105,0.312-1.616c0.21-0.511,0.541-0.959,0.996-1.347c0.454-0.387,1.036-0.694,1.746-0.921
		c0.712-0.226,1.566-0.34,2.572-0.34c0.377,0,0.806,0.023,1.277,0.07c0.475,0.048,0.942,0.11,1.407,0.185
		c0.464,0.076,0.903,0.153,1.321,0.228c0.416,0.076,0.758,0.152,1.021,0.228L147.966,30.128z"/>
	<path fill="#FFFFFF" d="M160.131,39.509c-0.209,0.15-0.481,0.32-0.823,0.511c-0.341,0.188-0.74,0.369-1.193,0.539
		c-0.455,0.172-0.953,0.313-1.492,0.428c-0.54,0.113-1.094,0.172-1.662,0.172c-1.043,0-1.941-0.178-2.7-0.524
		c-0.758-0.353-1.379-0.845-1.862-1.479c-0.481-0.636-0.842-1.398-1.078-2.287c-0.237-0.892-0.354-1.885-0.354-2.984
		c0-1.25,0.177-2.345,0.526-3.284c0.35-0.937,0.818-1.718,1.402-2.344c0.59-0.625,1.271-1.089,2.049-1.393
		c0.776-0.303,1.582-0.455,2.414-0.455c0.836,0,1.574,0.119,2.219,0.355c0.644,0.237,1.188,0.559,1.635,0.966
		c0.446,0.408,0.782,0.895,1.009,1.463c0.229,0.569,0.343,1.194,0.343,1.876c0,1.024-0.285,1.862-0.854,2.516
		c-0.567,0.655-1.261,1.171-2.074,1.55c-0.813,0.378-1.677,0.653-2.586,0.825c-0.91,0.169-1.707,0.266-2.389,0.282
		c0,0.437,0.159,0.838,0.481,1.209c0.323,0.368,0.807,0.554,1.45,0.554c0.356,0,0.767-0.052,1.222-0.154
		c0.455-0.104,0.904-0.24,1.352-0.412c0.443-0.17,0.865-0.359,1.265-0.567c0.398-0.207,0.722-0.417,0.968-0.626L160.131,39.509z
		 M155.472,29.617c-0.322,0-0.643,0.071-0.953,0.213c-0.312,0.143-0.604,0.355-0.867,0.64c-0.267,0.284-0.491,0.646-0.683,1.08
		c-0.188,0.436-0.321,0.947-0.396,1.535c0.492-0.056,1.009-0.119,1.548-0.184c0.541-0.068,1.037-0.176,1.493-0.328
		c0.453-0.153,0.828-0.351,1.121-0.597c0.293-0.247,0.439-0.578,0.439-0.995c0-0.397-0.138-0.726-0.41-0.98
		C156.485,29.745,156.06,29.617,155.472,29.617z"/>
</g>
<g>
	<path fill="#2CA5DE" d="M18.832,41.298c-0.316,0-0.637-0.052-0.958-0.154c-0.337,2.016-0.417,4.462,1.172,4.504
		c2.036,0.054,6.284,0.027,8.271,0.01c0.072-0.366,0.072-0.438,0.014-0.398c-1.605-0.678-4.329-2.242-2.927-4.628
		c-0.47,0.066-0.928,0.146-1.398,0.227C21.754,41.074,20.458,41.298,18.832,41.298z"/>
	<path fill="#2CA5DE" d="M41.092,45.259c-1.485-0.627-3.932-2.014-3.172-4.11c-0.916,0.524-1.958,0.791-3.116,0.791
		c-1.077,0-2.12-0.266-3.206-0.577c-0.305,1.97-0.323,4.245,1.208,4.285c2.035,0.054,6.283,0.027,8.271,0.01
		C41.15,45.291,41.15,45.219,41.092,45.259z"/>
	<path fill="#2CA5DE" d="M13.748,37.72c-0.59-0.833-1.072-1.662-1.404-2.277c-0.404,1.839-2.379,8.887-9.182,10.681l-0.285,0.642
		c0,0,8.7-0.791,13.792-6.138C15.713,40.088,14.736,39.116,13.748,37.72z"/>
	<path fill="#2CA5DE" d="M41.792,26.932c0,0-0.485-1.676-2.066-3.552c-3.103,1.898-5.258,5.194-5.589,9.012
		c-0.169-0.795-0.259-1.619-0.259-2.465c0-3.376,1.424-6.421,3.703-8.566c-0.798-0.597-1.735-1.158-2.833-1.633
		C31.002,22.286,28.974,26.87,29.8,31.5c-0.37-0.723-0.672-1.496-0.892-2.312c-1.028-3.813-0.057-7.694,2.271-10.531
		c-1.016-0.188-2.125-0.309-3.333-0.342c-3.561,3.442-4.629,8.855-2.466,13.451c-0.546-0.602-1.038-1.269-1.462-1.999
		c-2.013-3.464-2.059-7.529-0.482-10.902c-1.635,0.518-3.029,1.363-4.216,2.398c-1.55,3.939-0.893,8.541,1.964,11.912
		c-0.684-0.439-1.332-0.956-1.933-1.55c-1.801-1.786-2.903-4.01-3.306-6.333c-2.511,4.241-3.174,8.842-3.174,8.842
		s2.923,6.346,6.06,6.346c3.138,0,4.991-0.855,8.057-0.855s5.491,1.497,7.915,1.497S42.148,39.91,41.792,26.932z"/>
	<path fill="#2CA5DE" d="M44.973,27.669c0.652-0.607,1.574-1.559,2.225-2.703c1.279-2.248,1.076-4.775,1.076-4.775
		s-2.912,1.116-4.191,3.365c-0.82,1.442-1.325,2.772-1.392,3.692c0.354,0.124,0.59-0.286-0.001-0.001
		c0.074,3.579-0.252,6.516-0.976,8.787c0.039,0.008,0.078,0.016,0.113,0.019c0,0,2.353,0.928,4.92-0.071
		c2.567-0.998,6.273,4.351,6.845,5.633l1.426,0.144C55.018,41.759,54.18,30.167,44.973,27.669z M47.327,32.314
		c-0.61,0-1.104-0.495-1.104-1.106c0-0.61,0.495-1.104,1.104-1.104s1.105,0.495,1.105,1.104
		C48.433,31.819,47.937,32.314,47.327,32.314z"/>
</g>
</svg>
